<svg fill="none" height="16" viewBox="0 0 24 24" width="16" xmlns="http://www.w3.org/2000/svg"><path d="m20 6h-16m8-2v2m-3.90356 3.97913c.47841 1.57517 1.41186 4.11837 4.04716 6.41477m0 0c1.5821 1.3786 3.7777 2.6683 6.8564 3.6061m-6.8564-3.6061c3.0959-3.1481 4.9254-7.62369 4.9254-10.3939m-4.9254 10.3939c-1.9331 1.9657-4.36002 3.4139-7.1436 3.6061" stroke="#000" stroke-linecap="round" stroke-linejoin="round" stroke-width="2"/></svg><svg xmlns="http://www.w3.org/2000/svg" data-name="Layer 1" viewBox="0 0 24 24" id="chinese-language"><path d="M20,5H13V4a1,1,0,0,0-2,0V5H4A1,1,0,0,0,4,7H15.88214a14.49252,14.49252,0,0,1-3.94067,7.95227A14.42561,14.42561,0,0,1,8.66406,9.67041a1.0002,1.0002,0,0,0-1.88867.65918,16.41412,16.41412,0,0,0,3.68012,5.95825,14.29858,14.29858,0,0,1-5.769,2.73511A1.00015,1.00015,0,0,0,4.89941,21a1.01758,1.01758,0,0,0,.21485-.023,16.297,16.297,0,0,0,6.831-3.31885A16.38746,16.38746,0,0,0,18.78711,20.977a1,1,0,0,0,.42578-1.9541,14.38226,14.38226,0,0,1-5.78955-2.73316A16.4802,16.4802,0,0,0,17.89233,7H20a1,1,0,0,0,0-2Z"></path></svg>